<svg width="285" height="85" viewBox="0 0 285 85" fill="none" xmlns="http://www.w3.org/2000/svg">
<g filter="url(#filter0_d_1_13)">
<path d="M8.90287 18.9029C8.90287 13.38 13.38 8.90287 18.9029 8.90287H62.9029C68.4257 8.90287 72.9029 13.38 72.9029 18.9029V61.9886C72.9029 67.5114 68.4257 71.9886 62.9029 71.9886H39.9029H32.6529H25.4029H18.9029C13.38 71.9886 8.90287 67.5114 8.90287 61.9886V18.9029Z" fill="#F2968F"/>
</g>
<g filter="url(#filter1_d_1_13)">
<g clip-path="url(#clip0_1_13)">
<path d="M49.0386 39.5986C46.281 38.3839 43.1627 38.2721 40.3252 39.2862C37.4877 40.3003 35.1466 42.3633 33.7836 45.0507L27.6933 57.0398C24.133 63.7175 31.2119 71.5203 38.203 68.6181C42.0268 67.1347 44.4558 64.0365 48.6543 62.6209C52.9496 61.0008 56.7833 61.5953 60.7842 60.5477C67.838 58.2072 68.2164 47.8561 61.339 45.0149L49.0386 39.5986Z" fill="black"/>
<path d="M60.3071 21.1501C56.4576 21.7295 55.1382 26.7143 55.6543 30.4166C57.3204 41.853 68.3869 40.1917 67.1083 28.9778C66.5119 24.1892 63.5184 20.7458 60.3071 21.1501Z" fill="black"/>
<path d="M47.1212 32.3619C50.6996 31.083 52.1554 25.975 50.3717 20.9842C45.7195 9.09642 33.459 13.4783 37.405 25.6185C39.1887 30.6093 43.5523 33.6374 47.1212 32.3619Z" fill="black"/>
<path d="M22.8466 42.142C20.9086 38.9479 16.7192 35.9319 13.3744 37.9237C7.30987 41.9921 15.2134 55.1922 21.7432 52.9009C25.3907 51.4593 25.5638 46.5655 22.8466 42.142Z" fill="black"/>
<path d="M30.6797 38.238C34.2486 36.9625 35.7044 31.8546 33.9207 26.8637C29.2779 14.9726 17.0174 19.3545 20.954 31.498C22.7377 36.4888 27.1013 39.5169 30.6797 38.238Z" fill="black"/>
</g>
</g>
<g filter="url(#filter2_d_1_13)">
<path d="M123.07 44.0029V31.9099H118.401L118.343 33.3599C118.304 34.4232 118.237 35.4189 118.14 36.3469C118.043 37.2749 117.908 38.1255 117.734 38.8989C117.579 39.6722 117.376 40.3585 117.125 40.9579C116.874 41.5379 116.564 42.0212 116.197 42.4079L108.976 41.5959C109.614 41.5959 110.136 41.3832 110.542 40.9579C110.967 40.5132 111.306 39.9042 111.557 39.1309C111.808 38.3382 111.992 37.4102 112.108 36.3469C112.243 35.2642 112.34 34.0752 112.398 32.7799L112.63 26.6029H129.798V44.0029H123.07ZM108.396 50.8759V41.5959H132.466V50.8759H126.202V46.9029H114.66V50.8759H108.396ZM142.681 47.1929C140.883 47.1929 139.288 46.8449 137.896 46.1489C136.524 45.4335 135.441 44.4572 134.648 43.2199C133.856 41.9825 133.459 40.5615 133.459 38.9569C133.459 37.3522 133.856 35.9312 134.648 34.6939C135.441 33.4565 136.524 32.4899 137.896 31.7939C139.288 31.0979 140.883 30.7499 142.681 30.7499C144.479 30.7499 146.074 31.0979 147.466 31.7939C148.858 32.4899 149.941 33.4565 150.714 34.6939C151.507 35.9312 151.903 37.3522 151.903 38.9569C151.903 40.5615 151.507 41.9825 150.714 43.2199C149.941 44.4572 148.858 45.4335 147.466 46.1489C146.074 46.8449 144.479 47.1929 142.681 47.1929ZM142.681 42.0889C143.165 42.0889 143.6 41.9729 143.986 41.7409C144.373 41.5089 144.682 41.1609 144.914 40.6969C145.146 40.2135 145.262 39.6335 145.262 38.9569C145.262 38.2609 145.146 37.6905 144.914 37.2459C144.682 36.7819 144.373 36.4339 143.986 36.2019C143.6 35.9699 143.165 35.8539 142.681 35.8539C142.198 35.8539 141.763 35.9699 141.376 36.2019C140.99 36.4339 140.68 36.7819 140.448 37.2459C140.216 37.6905 140.1 38.2609 140.1 38.9569C140.1 39.6335 140.216 40.2135 140.448 40.6969C140.68 41.1609 140.99 41.5089 141.376 41.7409C141.763 41.9729 142.198 42.0889 142.681 42.0889ZM162.515 47.3669C161.239 47.3669 160.031 47.1929 158.89 46.8449C157.769 46.4969 156.783 45.9265 155.932 45.1339C155.081 44.3412 154.414 43.2972 153.931 42.0019C153.448 40.7065 153.206 39.1115 153.206 37.2169C153.206 36.0182 153.312 34.9065 153.525 33.8819C153.738 32.8379 154.066 31.8809 154.511 31.0109C154.956 30.1409 155.526 29.3772 156.222 28.7199C156.918 28.0432 157.749 27.4825 158.716 27.0379C159.683 26.5739 160.785 26.2259 162.022 25.9939L169.91 24.5729L170.78 29.9379L164.11 31.1269C163.685 31.2042 163.25 31.3009 162.805 31.4169C162.36 31.5135 161.935 31.6585 161.529 31.8519C161.123 32.0259 160.756 32.2772 160.427 32.6059C160.098 32.9345 159.837 33.3599 159.644 33.8819C159.47 34.4039 159.383 35.0515 159.383 35.8249C159.383 36.0569 159.393 36.2502 159.412 36.4049C159.431 36.5595 159.451 36.7432 159.47 36.9559C159.489 37.1492 159.499 37.4585 159.499 37.8839L157.846 36.4339C158.349 35.7379 158.919 35.1482 159.557 34.6649C160.195 34.1622 160.92 33.7755 161.732 33.5049C162.544 33.2342 163.462 33.0989 164.487 33.0989C166.034 33.0989 167.348 33.3889 168.431 33.9689C169.533 34.5489 170.364 35.3512 170.925 36.3759C171.505 37.3812 171.795 38.5315 171.795 39.8269C171.795 41.4122 171.389 42.7655 170.577 43.8869C169.765 45.0082 168.663 45.8685 167.271 46.4679C165.879 47.0672 164.294 47.3669 162.515 47.3669ZM162.631 42.5239C163.134 42.5239 163.569 42.4175 163.936 42.2049C164.303 41.9729 164.593 41.6635 164.806 41.2769C165.019 40.8902 165.125 40.4552 165.125 39.9719C165.125 39.4692 165.019 39.0439 164.806 38.6959C164.593 38.3479 164.294 38.0772 163.907 37.8839C163.54 37.6905 163.114 37.5939 162.631 37.5939C162.128 37.5939 161.684 37.6905 161.297 37.8839C160.91 38.0772 160.611 38.3479 160.398 38.6959C160.185 39.0245 160.079 39.4209 160.079 39.8849C160.079 40.3875 160.185 40.8419 160.398 41.2479C160.611 41.6345 160.91 41.9439 161.297 42.1759C161.684 42.4079 162.128 42.5239 162.631 42.5239ZM184.397 47.1929C183.024 47.1929 181.884 46.9029 180.975 46.3229C180.086 45.7235 179.428 44.8245 179.003 43.6259C178.578 42.4079 178.365 40.8612 178.365 38.9859C178.365 37.0719 178.558 35.5155 178.945 34.3169C179.351 33.0989 179.999 32.1999 180.888 31.6199C181.777 31.0399 182.947 30.7499 184.397 30.7499C185.789 30.7499 187.065 31.0882 188.225 31.7649C189.385 32.4222 190.313 33.3695 191.009 34.6069C191.705 35.8249 192.053 37.2845 192.053 38.9859C192.053 40.6872 191.705 42.1565 191.009 43.3939C190.313 44.6119 189.385 45.5495 188.225 46.2069C187.065 46.8642 185.789 47.1929 184.397 47.1929ZM173.812 52.5289V31.0399H180.047V33.1859L180.076 38.9859L180.366 44.7859V52.5289H173.812ZM182.831 42.0889C183.314 42.0889 183.749 41.9729 184.136 41.7409C184.523 41.5089 184.832 41.1609 185.064 40.6969C185.296 40.2329 185.412 39.6625 185.412 38.9859C185.412 38.2899 185.296 37.7099 185.064 37.2459C184.832 36.7819 184.523 36.4339 184.136 36.2019C183.749 35.9699 183.314 35.8539 182.831 35.8539C182.348 35.8539 181.913 35.9699 181.526 36.2019C181.139 36.4339 180.83 36.7819 180.598 37.2459C180.366 37.7099 180.25 38.2899 180.25 38.9859C180.25 39.6625 180.366 40.2329 180.598 40.6969C180.83 41.1609 181.139 41.5089 181.526 41.7409C181.913 41.9729 182.348 42.0889 182.831 42.0889ZM202.352 47.1929C200.554 47.1929 198.959 46.8449 197.567 46.1489C196.195 45.4335 195.112 44.4572 194.319 43.2199C193.527 41.9825 193.13 40.5615 193.13 38.9569C193.13 37.3522 193.527 35.9312 194.319 34.6939C195.112 33.4565 196.195 32.4899 197.567 31.7939C198.959 31.0979 200.554 30.7499 202.352 30.7499C204.15 30.7499 205.745 31.0979 207.137 31.7939C208.529 32.4899 209.612 33.4565 210.385 34.6939C211.178 35.9312 211.574 37.3522 211.574 38.9569C211.574 40.5615 211.178 41.9825 210.385 43.2199C209.612 44.4572 208.529 45.4335 207.137 46.1489C205.745 46.8449 204.15 47.1929 202.352 47.1929ZM202.352 42.0889C202.836 42.0889 203.271 41.9729 203.657 41.7409C204.044 41.5089 204.353 41.1609 204.585 40.6969C204.817 40.2135 204.933 39.6335 204.933 38.9569C204.933 38.2609 204.817 37.6905 204.585 37.2459C204.353 36.7819 204.044 36.4339 203.657 36.2019C203.271 35.9699 202.836 35.8539 202.352 35.8539C201.869 35.8539 201.434 35.9699 201.047 36.2019C200.661 36.4339 200.351 36.7819 200.119 37.2459C199.887 37.6905 199.771 38.2609 199.771 38.9569C199.771 39.6335 199.887 40.2135 200.119 40.6969C200.351 41.1609 200.661 41.5089 201.047 41.7409C201.434 41.9729 201.869 42.0889 202.352 42.0889ZM216.69 46.9029V34.7519L218.111 36.1439H211.847V31.0399H228.058V36.1439H221.794L223.215 34.7519V46.9029H216.69ZM239.194 46.9029V44.0899L238.73 43.3359V37.9999C238.73 37.2265 238.488 36.6369 238.005 36.2309C237.541 35.8249 236.777 35.6219 235.714 35.6219C234.998 35.6219 234.273 35.7379 233.539 35.9699C232.804 36.1825 232.176 36.4822 231.654 36.8689L229.566 32.5479C230.494 31.9679 231.605 31.5232 232.901 31.2139C234.196 30.9045 235.462 30.7499 236.7 30.7499C239.426 30.7499 241.533 31.3589 243.022 32.5769C244.53 33.7949 245.284 35.7282 245.284 38.3769V46.9029H239.194ZM234.699 47.1929C233.403 47.1929 232.321 46.9705 231.451 46.5259C230.581 46.0812 229.923 45.4915 229.479 44.7569C229.034 44.0029 228.812 43.1715 228.812 42.2629C228.812 41.2382 229.073 40.3682 229.595 39.6529C230.117 38.9375 230.909 38.3962 231.973 38.0289C233.055 37.6615 234.418 37.4779 236.062 37.4779H239.368V40.6389H237.106C236.41 40.6389 235.897 40.7549 235.569 40.9869C235.259 41.1995 235.105 41.5282 235.105 41.9729C235.105 42.3402 235.24 42.6495 235.511 42.9009C235.801 43.1329 236.187 43.2489 236.671 43.2489C237.115 43.2489 237.521 43.1329 237.889 42.9009C238.275 42.6495 238.556 42.2629 238.73 41.7409L239.571 43.6839C239.319 44.8632 238.788 45.7429 237.976 46.3229C237.164 46.9029 236.071 47.1929 234.699 47.1929Z" fill="#F2968F"/>
</g>
<defs>
<filter id="filter0_d_1_13" x="4.90287" y="8.90287" width="72" height="75.6007" filterUnits="userSpaceOnUse" color-interpolation-filters="sRGB">
<feFlood flood-opacity="0" result="BackgroundImageFix"/>
<feColorMatrix in="SourceAlpha" type="matrix" values="0 0 0 0 0 0 0 0 0 0 0 0 0 0 0 0 0 0 127 0" result="hardAlpha"/>
<feOffset dy="4"/>
<feGaussianBlur stdDeviation="2"/>
<feComposite in2="hardAlpha" operator="out"/>
<feColorMatrix type="matrix" values="0 0 0 0 0 0 0 0 0 0 0 0 0 0 0 0 0 0 0.25 0"/>
<feBlend mode="normal" in2="BackgroundImageFix" result="effect1_dropShadow_1_13"/>
<feBlend mode="normal" in="SourceGraphic" in2="effect1_dropShadow_1_13" result="shape"/>
</filter>
<filter id="filter1_d_1_13" x="-4" y="0" width="89.8057" height="89.8057" filterUnits="userSpaceOnUse" color-interpolation-filters="sRGB">
<feFlood flood-opacity="0" result="BackgroundImageFix"/>
<feColorMatrix in="SourceAlpha" type="matrix" values="0 0 0 0 0 0 0 0 0 0 0 0 0 0 0 0 0 0 127 0" result="hardAlpha"/>
<feOffset dy="4"/>
<feGaussianBlur stdDeviation="2"/>
<feComposite in2="hardAlpha" operator="out"/>
<feColorMatrix type="matrix" values="0 0 0 0 0.9125 0 0 0 0 0.897292 0 0 0 0 0.897292 0 0 0 0.25 0"/>
<feBlend mode="normal" in2="BackgroundImageFix" result="effect1_dropShadow_1_13"/>
<feBlend mode="normal" in="SourceGraphic" in2="effect1_dropShadow_1_13" result="shape"/>
</filter>
<filter id="filter2_d_1_13" x="104.396" y="24.5729" width="144.888" height="35.956" filterUnits="userSpaceOnUse" color-interpolation-filters="sRGB">
<feFlood flood-opacity="0" result="BackgroundImageFix"/>
<feColorMatrix in="SourceAlpha" type="matrix" values="0 0 0 0 0 0 0 0 0 0 0 0 0 0 0 0 0 0 127 0" result="hardAlpha"/>
<feOffset dy="4"/>
<feGaussianBlur stdDeviation="2"/>
<feComposite in2="hardAlpha" operator="out"/>
<feColorMatrix type="matrix" values="0 0 0 0 0 0 0 0 0 0 0 0 0 0 0 0 0 0 0.25 0"/>
<feBlend mode="normal" in2="BackgroundImageFix" result="effect1_dropShadow_1_13"/>
<feBlend mode="normal" in="SourceGraphic" in2="effect1_dropShadow_1_13" result="shape"/>
</filter>
<clipPath id="clip0_1_13">
<rect y="21.5391" width="64" height="64" rx="10" transform="rotate(-19.6667 0 21.5391)" fill="white"/>
</clipPath>
</defs>
</svg>
